# xmcd CD database file
#
# Track frame offsets:
#	182
#	20427
#	40687
#	60927
#	81175
#	101427
#	121675
#	141925
#	162195
#	182437
#	202702
#	222942
#	243187
#	263427
#	283680
#	303925
#
# Disc length: 4318 seconds
#
# Revision: 2
# Processed by: cddbd v1.4PL0 Copyright (c) Steve Scherf et al.
# Submitted via: CDex 1.40PlusFr
#
DISCID=c210dc10
DTITLE=Les Voyages Imaginaires - Les Voyages Imaginaires
DYEAR=1997
DGENRE=New Age
TTITLE0=Fetypandra
TTITLE1=Paroles Intimes
TTITLE2=Jingarosm
TTITLE3=Wandering Man
TTITLE4=Nyimarev
TTITLE5=Tonkinoise
TTITLE6=Kiririsha
TTITLE7=California Ride
TTITLE8=Wakan Aton
TTITLE9=Pygmalion
TTITLE10=Rain
TTITLE11=Halong Bay
TTITLE12=Highlands*
TTITLE13=Samoûn Dawning
TTITLE14=Berliner nightfly
TTITLE15=After words
EXTD=La vie en seize verbes fondamentaux YEAR: 1997 ID3G: 10
EXTT0=
EXTT1=
EXTT2=
EXTT3=
EXTT4=
EXTT5=
EXTT6=
EXTT7=
EXTT8=
EXTT9=
EXTT10=
EXTT11=
EXTT12=
EXTT13=
EXTT14=
EXTT15=
PLAYORDER=
